PathFileType	4	(X/Y/Z)	C:\Users\Basilio\Documents\Thesis Gigler\squatting_fais\c3dfiles\076\SLS_back_pre3\markers_experimental.trc
DataRate	CameraRate	NumFrames	NumMarkers	Units	OrigDataRate	OrigDataStartFrame	OrigNumFrames
200.000000	200.000000	4	61	mm	200.000000	1329	1772
Frame#	Time	FHD			LBHD			RBHD			C7			T10			CLAV			LSHO			LUUPA			LMUPA			LDUPA			LLEP			LMEP			LRAD			LUL			LRFIN			RSHO			RUPA1			RMUPA			RDUPA			RLEP			RMEP			RRAD			RUL			RUFIN			LASI			RASI			USACR			LSACR			RSACR			LTHI1			LTHI2			LTHI3			LTHI4			LLFC			LMFC			LTIB1			LTIB2			LTIB3			LTIB4			LLMAL			LMMAL			LHEE			LMT1			LMT2			LMT5			RTHI			RTHI2			RTHI3			RTHI4			RLFC			RMFC			RTIB1			RTIB2			RTIB3			RTIB4			RLMAL			RMMAL			RHEE			RMT1			RMT2			RMT5			
		X1	Y1	Z1	X2	Y2	Z2	X3	Y3	Z3	X4	Y4	Z4	X5	Y5	Z5	X6	Y6	Z6	X7	Y7	Z7	X8	Y8	Z8	X9	Y9	Z9	X10	Y10	Z10	X11	Y11	Z11	X12	Y12	Z12	X13	Y13	Z13	X14	Y14	Z14	X15	Y15	Z15	X16	Y16	Z16	X17	Y17	Z17	X18	Y18	Z18	X19	Y19	Z19	X20	Y20	Z20	X21	Y21	Z21	X22	Y22	Z22	X23	Y23	Z23	X24	Y24	Z24	X25	Y25	Z25	X26	Y26	Z26	X27	Y27	Z27	X28	Y28	Z28	X29	Y29	Z29	X30	Y30	Z30	X31	Y31	Z31	X32	Y32	Z32	X33	Y33	Z33	X34	Y34	Z34	X35	Y35	Z35	X36	Y36	Z36	X37	Y37	Z37	X38	Y38	Z38	X39	Y39	Z39	X40	Y40	Z40	X41	Y41	Z41	X42	Y42	Z42	X43	Y43	Z43	X44	Y44	Z44	X45	Y45	Z45	X46	Y46	Z46	X47	Y47	Z47	X48	Y48	Z48	X49	Y49	Z49	X50	Y50	Z50	X51	Y51	Z51	X52	Y52	Z52	X53	Y53	Z53	X54	Y54	Z54	X55	Y55	Z55	X56	Y56	Z56	X57	Y57	Z57	X58	Y58	Z58	X59	Y59	Z59	X60	Y60	Z60	X61	Y61	Z61	

1330	6.645	-87.1798782348633	1572.600708007813	-1022.276672363281	-229.0325469970704	1499.696899414063	-1113.32666015625	-210.8305053710938	1507.376953125	-962.9819946289065	-273.1512451171876	1406.950805664063	-1032.711669921875	-410.3602600097657	1126.6279296875	-1030.467529296875	-166.9953155517578	1296.9853515625	-1035.6435546875	-225.1571350097657	1338.408569335938	-1195.412231445313	-167.9317932128907	1187.450561523438	-1290.466064453125	-125.4537887573242	1175.780517578125	-1267.2412109375	-130.8739471435547	1133.993041992188	-1312.85498046875	-110.8281173706055	1082.0400390625	-1327.924438476563	-140.7427215576172	1034.106079101563	-1267.545532226563	105.5223083496094	984.0994873046877	-1240.8349609375	107.6001052856446	967.4863891601565	-1304.31494140625	186.0524139404297	956.028747558594	-1233.173095703125	-219.1833648681641	1331.619140625	-880.353698730469	-175.2241668701172	1175.484130859375	-784.5109863281252	-127.1210403442383	1177.58544921875	-794.0095214843752	-132.8616485595703	1120.319702148438	-773.5297851562502	-84.10585021972658	1074.055297851563	-768.188171386719	-104.7335586547852	1039.685668945313	-836.1633300781252	124.7158737182617	950.3536376953127	-828.5366210937502	112.7042846679688	941.8000488281252	-763.9910888671876	196.2032165527344	920.699157714844	-812.4744873046877	-316.0993347167969	903.3078613281252	-1118.461303710938	-330.3281555175782	903.8736572265627	-905.2985839843752	-455.8063049316407	1026.432983398438	-1021.820251464844	-473.4985961914064	1001.558654785156	-1049.89697265625	-476.205780029297	1002.337097167969	-992.4126586914065	-394.0210571289064	767.3799438476564	-1187.749389648438	-350.8421020507813	694.4728393554689	-1179.918334960938	-303.3973388671876	705.4603881835939	-1168.51318359375	-370.1864624023438	639.3154907226564	-1160.639038085938	-330.6595153808594	489.3612365722657	-1123.036865234375	-306.9711303710938	499.7336425781251	-1008.70263671875	-300.7603454589844	352.2959289550782	-1036.617309570313	-324.4817810058594	291.9830322265626	-1097.097900390625	-296.2807617187501	298.4568176269532	-1059.44091796875	-318.3615112304688	228.5936889648438	-1017.254089355469	-381.8858032226563	105.2835845947266	-1056.955078125	-357.1002807617188	121.318588256836	-977.2783813476565	-441.2864379882814	95.6071014404297	-1006.882690429688	-240.0537567138672	51.87324523925783	-991.674011230469	-234.7661895751954	50.53533172607423	-1030.734741210938	-259.8054199218751	45.17176818847657	-1080.711669921875	-437.8314514160157	682.1904296875001	-827.2432250976565	-404.4200134277345	622.9719848632814	-821.5616455078127	-370.3810119628907	621.1104125976564	-828.8374023437502	-439.4592895507814	547.8668823242189	-833.2225341796877	-449.1952209472657	504.2989501953126	-839.9009399414065	-427.5860290527345	485.4959411621095	-950.2271118164065	-553.2197265625001	431.266082763672	-878.7822875976565	-642.9521484375001	492.8492736816407	-876.4246215820315	-639.2254028320314	446.412322998047	-883.393493652344	-674.1708374023439	427.8343505859376	-927.3260498046877	-821.3018188476565	472.9163818359376	-927.7239990234377	-785.9854125976565	451.6868591308595	-1004.220275878906	-831.845886230469	530.3554077148439	-976.1704711914065	-846.538757324219	328.8810729980469	-1013.374816894531	-856.3492431640627	318.9483337402344	-968.8132324218752	-888.972351074219	345.7500610351563	-922.828063964844	
1331	6.65	-87.62996673583986	1573.992797851563	-1022.468017578125	-229.4110412597657	1500.835571289063	-1113.880615234375	-211.2910919189454	1508.550415039063	-963.2028808593752	-273.5108642578126	1408.064575195313	-1033.025512695313	-409.9189758300782	1127.297485351563	-1030.820068359375	-167.2146606445313	1298.202270507813	-1035.898803710938	-225.4544982910157	1339.1572265625	-1195.990112304688	-169.4793853759766	1186.551147460938	-1290.407348632813	-127.2405471801758	1174.613037109375	-1267.188232421875	-133.4220886230469	1132.665771484375	-1312.493041992188	-112.7379379272461	1080.291015625	-1327.148681640625	-144.3880920410157	1032.953857421875	-1266.710815429688	101.2995147705078	979.8728027343752	-1239.803588867188	103.2566604614258	962.9138183593752	-1303.02880859375	181.5421447753907	950.9392089843752	-1232.18310546875	-219.645980834961	1332.698120117188	-880.4707641601565	-177.262924194336	1175.114624023438	-784.9006347656252	-129.0856323242188	1176.614990234375	-794.560241699219	-135.5958404541016	1119.276611328125	-773.8737792968752	-87.6580047607422	1072.46142578125	-768.6083984375002	-108.5727767944336	1038.575073242188	-836.8669433593752	119.9335174560547	946.3208618164065	-828.7790527343752	107.5386962890625	937.7617187500002	-764.4605712890626	190.8009948730469	915.6692504882815	-812.794128417969	-315.0844726562501	903.981140136719	-1118.48486328125	-329.3573303222657	904.7363281250002	-905.353942871094	-455.6721801757814	1026.79931640625	-1021.7392578125	-470.2705383300782	1001.627624511719	-1050.375244140625	-475.1504516601564	1003.152954101563	-992.7102661132815	-393.3974609375001	767.7872314453126	-1187.895874023438	-350.5219421386719	694.8288574218751	-1180.143676757813	-303.1004638671876	705.4520263671876	-1168.712646484375	-369.8870849609376	639.6628417968751	-1160.757934570313	-331.2234802246094	489.5691223144532	-1123.2529296875	-306.7576599121094	499.8293762207032	-1008.928833007813	-301.2383117675782	352.5300292968751	-1037.173950195313	-324.8702087402344	292.0959167480469	-1097.340576171875	-296.5640563964844	298.5767211914063	-1059.755126953125	-318.4152832031251	228.6817169189454	-1017.625610351563	-382.0570068359376	105.184326171875	-1056.982666015625	-356.9667663574219	121.3746719360352	-977.480407714844	-441.3152465820314	95.62186431884767	-1006.998352050781	-240.0541381835938	51.95748519897462	-991.7364501953127	-234.768783569336	50.50798797607423	-1030.741088867188	-259.8277282714844	45.11367416381837	-1080.73583984375	-436.6644592285157	683.0277099609376	-827.0493164062502	-403.1972961425782	623.9444580078126	-821.2464599609377	-369.0369262695313	621.9327392578126	-828.6077270507815	-438.0498657226564	548.7509765625001	-832.7075195312502	-447.7042541503907	505.0885314941407	-839.2746582031252	-426.0257263183595	486.2329101562501	-949.8897094726565	-551.5961303710939	431.7590332031251	-878.1861572265627	-641.2717285156251	493.4252319335939	-876.1361083984377	-637.8681640625001	446.853485107422	-883.0739746093752	-672.5637207031251	428.1084899902345	-927.0930175781252	-819.5147094726565	473.050018310547	-927.660095214844	-783.5413208007815	451.4309082031251	-1003.752685546875	-830.1383056640627	530.3601074218751	-976.375183105469	-844.578308105469	328.7085571289063	-1013.098754882813	-854.2151489257815	319.0521240234376	-968.0200195312502	-887.081726074219	345.7709960937501	-922.679870605469	
1332	6.655	-88.2359085083008	1575.3662109375	-1022.731262207031	-229.2388305664063	1502.883422851563	-1114.21142578125	-211.7965393066407	1509.790405273438	-963.4104003906252	-273.9361267089844	1408.9501953125	-1033.478149414063	-409.6343078613282	1127.682250976563	-1031.18310546875	-167.4798126220703	1299.523559570313	-1036.18994140625	-225.7419433593751	1339.990112304688	-1196.581420898438	-171.2623901367188	1185.765991210938	-1290.180908203125	-128.8753662109375	1173.302734375	-1266.85693359375	-135.4856719970703	1131.222534179688	-1311.994140625	-116.7494430541992	1078.6171875	-1326.4423828125	-147.7793426513672	1031.89501953125	-1265.625	96.94075012207034	975.8057861328127	-1238.703002929688	98.83734130859378	958.4382324218752	-1301.909423828125	176.9596557617188	945.8350219726565	-1231.319091796875	-219.9009094238282	1333.644287109375	-880.4724121093752	-179.127182006836	1174.78857421875	-785.137634277344	-130.9489898681641	1175.723754882813	-794.683532714844	-138.2944641113282	1118.427978515625	-774.2981567382815	-91.20669555664064	1070.733032226563	-769.0900878906252	-112.371566772461	1037.505004882813	-837.357360839844	115.0041885375977	942.4630126953127	-829.130310058594	102.2865600585938	933.609802246094	-764.8798828125001	185.5317535400391	910.8552856445315	-813.104431152344	-313.9472045898438	904.5043945312502	-1118.394897460938	-328.3687438964844	905.642761230469	-905.3584594726565	-454.8379821777345	1026.996459960938	-1021.967224121094	-471.3142089843751	1002.473388671875	-1050.008544921875	-474.6224670410157	1003.348510742188	-992.7971801757815	-393.4151306152345	768.2854003906252	-1188.070556640625	-350.0890808105469	695.2053222656251	-1180.324829101563	-302.4653015136719	705.5291137695314	-1169.159545898438	-369.7419433593751	639.9396972656251	-1160.915161132813	-331.4869995117188	489.662567138672	-1123.324951171875	-306.4502868652344	499.8581542968751	-1009.183471679688	-301.3764648437501	352.6497497558594	-1037.538940429688	-325.1050109863282	292.4145812988282	-1097.529541015625	-296.8435974121094	298.7649841308594	-1060.289184570313	-318.4618835449219	228.7799377441407	-1018.039245605469	-382.1246337890626	105.1040191650391	-1057.074096679688	-356.9218139648438	121.4411239624024	-977.7348632812502	-441.3115844726564	95.65210723876955	-1007.05517578125	-240.0447692871094	52.08016586303712	-991.7728271484377	-234.7638854980469	50.48866653442384	-1030.843139648438	-259.8446655273438	45.00891113281251	-1080.815307617188	-435.3391113281251	683.9136352539064	-826.7265625000002	-401.7348937988282	624.8355102539064	-820.5161132812502	-367.8028259277344	622.9258422851564	-827.889343261719	-436.600067138672	549.5388793945314	-832.1486816406252	-446.1803283691407	505.9833984375001	-838.7098388671877	-424.3338317871095	486.8496093750001	-949.4370117187502	-549.8600463867189	432.466278076172	-877.4772949218752	-639.8452758789064	493.768035888672	-875.962341308594	-635.9315795898439	447.1971435546876	-882.5874633789065	-670.7686767578126	428.4439697265626	-926.6013183593752	-817.9832153320315	473.115447998047	-927.7164306640627	-781.650085449219	451.4363098144532	-1003.821594238281	-828.568298339844	530.2549438476564	-976.5598754882815	-842.5076293945315	328.6531677246094	-1013.017944335938	-852.5109863281252	318.8041687011719	-968.3829345703127	-885.255554199219	345.7166137695313	-922.6032714843752	
1333	6.66	-88.61453247070314	1576.50146484375	-1022.885192871094	-229.4186706542969	1503.816040039063	-1114.560424804688	-212.2295837402344	1510.90966796875	-963.6437988281252	-274.2424011230469	1409.99951171875	-1033.746459960938	-409.1182556152345	1128.309814453125	-1031.604370117188	-167.3649444580078	1300.678466796875	-1036.213500976563	-225.6843719482422	1340.71484375	-1196.96142578125	-172.7000274658203	1184.901489257813	-1290.072509765625	-130.6601257324219	1172.156005859375	-1266.593017578125	-138.0405883789063	1129.84228515625	-1311.555908203125	-119.7350463867188	1076.908081054688	-1325.770629882813	-149.3629150390625	1031.16796875	-1263.780517578125	92.57069396972658	971.7670898437502	-1237.777954101563	94.06797027587892	954.1094360351565	-1300.932861328125	172.1741180419922	940.7918090820315	-1230.197387695313	-220.1383209228516	1334.521118164063	-880.4810180664065	-181.2333984375	1174.3564453125	-785.5564575195315	-133.0850830078125	1174.652099609375	-794.996520996094	-141.1068878173828	1117.489501953125	-774.6611938476565	-94.78401184082033	1068.886596679688	-769.4868164062502	-116.0901489257813	1036.328125	-837.8160400390627	109.7744293212891	938.4649047851565	-829.5100097656252	96.8945007324219	929.5721435546877	-765.3225708007814	180.0833892822266	905.933532714844	-813.322448730469	-312.6637878417969	905.0822753906252	-1118.396484375	-327.4032592773438	906.4254150390627	-905.4705200195315	-454.080291748047	1027.454833984375	-1022.174926757813	-470.9552307128907	1002.865600585938	-1050.449340820313	-473.7624511718751	1003.520812988281	-993.0716552734377	-392.7925109863282	768.7646484375002	-1188.144775390625	-349.1197814941407	695.2199096679689	-1180.24951171875	-302.1247558593751	705.5473632812501	-1169.372924804688	-369.4091186523438	640.0858154296876	-1160.985107421875	-331.6687011718751	489.7910766601564	-1123.508911132813	-306.2318115234376	499.9116821289064	-1009.457214355469	-301.4557495117188	352.7421264648438	-1037.911254882813	-325.6674499511719	292.7141113281251	-1097.921875	-297.0155334472657	298.9822998046876	-1060.588134765625	-318.4510498046876	228.8840789794922	-1018.356567382813	-382.0968017578126	105.0560302734375	-1057.196044921875	-356.8405456542969	121.5603256225586	-977.9024047851565	-441.2766113281251	95.68951416015626	-1007.086669921875	-240.0417480468751	52.11104965209962	-991.8317871093752	-234.7876739501954	50.45046234130861	-1030.8935546875	-259.8121337890626	44.98083496093751	-1080.883422851563	-434.2300720214845	684.7907104492189	-826.6319580078127	-400.5103759765626	625.6985473632814	-820.1148681640627	-366.5558776855469	623.8760375976564	-827.4678955078127	-435.1609191894532	550.4470214843751	-831.580017089844	-444.6978454589845	506.7102966308595	-838.1528320312502	-422.8623962402345	487.4914550781251	-948.9070434570315	-548.2019653320314	432.9268493652345	-876.9758911132815	-638.1218872070314	494.2252197265626	-875.601257324219	-634.4973754882814	447.6924743652345	-882.2903442382815	-668.9875488281251	428.5234985351564	-926.4033813476565	-816.1455688476565	473.1151428222657	-927.7957763671877	-779.834899902344	451.4464416503907	-1003.693786621094	-826.7159423828127	530.2758789062501	-976.7022705078127	-840.0693359375002	328.3331604003907	-1012.643005371094	-850.2573852539065	318.7751770019532	-968.009704589844	-883.300231933594	345.6681518554688	-922.405944824219	
